<svg data-v-fde0c5aa="" xmlns="http://www.w3.org/2000/svg" viewBox="0 0 300 300" class="iconLeft"><!----><defs data-v-fde0c5aa=""><!----></defs><rect data-v-fde0c5aa="" fill="#E5EAFE" x="0" y="0" width="300px" height="300px" class="logo-background-square"></rect><defs data-v-fde0c5aa=""><!----></defs><g data-v-fde0c5aa="" id="0384efe4-31d2-43b1-ae03-3a6e2593f330" fill="#22255B" transform="matrix(4.949193145342328,0,0,4.949193145342328,138.00238849531976,97.16736458944617)"><path d="M1.23 13.78L2.84 13.78L2.84 10.36L4.31 10.36C6.29 10.36 7.78 9.42 7.78 7.38C7.78 5.24 6.31 4.54 4.31 4.54L1.23 4.54ZM2.84 9.07L2.84 5.82L4.17 5.82C5.52 5.82 6.19 6.22 6.19 7.38C6.19 8.51 5.54 9.07 4.17 9.07ZM11.69 13.96C12.63 13.96 13.54 13.45 14.27 12.88L14.32 12.88L14.45 13.78L15.75 13.78L15.75 9.52C15.75 7.56 14.71 6.45 12.81 6.45C11.62 6.45 10.56 6.94 9.95 7.46L10.54 8.53C11.03 8.12 11.73 7.76 12.50 7.76C13.64 7.76 14.10 8.39 14.15 9.21C10.75 9.48 9.39 10.26 9.39 11.87C9.39 13.10 10.36 13.96 11.69 13.96ZM12.18 12.68C11.49 12.68 10.95 12.40 10.95 11.75C10.95 10.95 11.68 10.40 14.15 10.22L14.15 11.79C13.52 12.35 12.87 12.68 12.18 12.68ZM18.72 16.81C20.37 16.81 21.20 15.82 21.78 14.24L24.65 6.64L23.14 6.64L21.88 10.21C21.66 10.88 21.42 11.62 21.21 12.31L21.15 12.31C20.90 11.59 20.64 10.85 20.38 10.21L18.97 6.64L17.36 6.64L20.45 13.71L20.24 14.25C19.99 14.90 19.50 15.53 18.62 15.53C18.42 15.53 18.23 15.50 18.05 15.44L17.74 16.67C18.00 16.76 18.35 16.81 18.72 16.81Z"></path></g><defs data-v-fde0c5aa=""><linearGradient data-v-fde0c5aa="" gradientTransform="rotate(25)" id="15a78b46-dc54-4feb-a555-615ff556a4f4" x1="0%" y1="0%" x2="100%" y2="0%"><stop data-v-fde0c5aa="" offset="0%" stop-color="#5106FF" stop-opacity="1"></stop><stop data-v-fde0c5aa="" offset="100%" stop-color="#61CBF2" stop-opacity="1"></stop></linearGradient></defs><g data-v-fde0c5aa="" id="c49246e9-4bd8-4dfb-9bd8-83dcfb4564f4" stroke="none" fill="url(#15a78b46-dc54-4feb-a555-615ff556a4f4)" transform="matrix(2.8465592549527874,0,0,2.8465592549527874,40,104.45505192075541)"><path d="M16 32c8.837 0 16-7.163 16-16S24.837 0 16 0 0 7.163 0 16s7.163 16 16 16zM14.817 6.421h2v8.886h8.887v2H14.817V6.421zm-5.959.437h2v14.283h14.283v2H8.858V6.858z"></path></g><!----></svg>